<?xml version="1.0" standalone="no"?><!DOCTYPE svg PUBLIC "-//W3C//DTD SVG 1.1//EN" "http://www.w3.org/Graphics/SVG/1.1/DTD/svg11.dtd"><svg t="1718672768027" class="icon" viewBox="0 0 1024 1024" version="1.1" xmlns="http://www.w3.org/2000/svg" p-id="6048" xmlns:xlink="http://www.w3.org/1999/xlink" width="64" height="64"><path d="M292.571429 380.342857a146.285714 146.285714 0 1 0 0 292.571429A146.285714 146.285714 0 0 0 292.571429 380.342857z m0 58.514286a87.771429 87.771429 0 1 1 0 175.542857 87.771429 87.771429 0 0 1 0-175.542857zM760.685714 614.4a146.285714 146.285714 0 1 0 0 292.571429 146.285714 146.285714 0 0 0 0-292.571429z m0 58.514286a87.771429 87.771429 0 1 1 0 175.542857 87.771429 87.771429 0 0 1 0-175.542857zM760.685714 146.285714a146.285714 146.285714 0 1 0 0 292.571429 146.285714 146.285714 0 0 0 0-292.571429z m0 58.514286a87.771429 87.771429 0 1 1 0 175.542857 87.771429 87.771429 0 0 1 0-175.542857z" p-id="6049"></path><path d="M359.975426 472.034m25.337429-14.628572l253.37429-146.285714q25.337429-14.628571 39.966 10.708857l0 0q14.628571 25.337429-10.708857 39.966001l-253.37429 146.285714q-25.337429 14.628571-39.966-10.708857l0 0q-14.628571-25.337429 10.708857-39.966001Z" p-id="6050"></path><path d="M389.232569 530.548285m25.337429 14.628572l253.37429 146.285714q25.337429 14.628571 10.708857 39.966l0 0q-14.628571 25.337429-39.966 10.708858l-253.37429-146.285714q-25.337429-14.628571-10.708857-39.966001l0 0q14.628571-25.337429 39.966-10.708857Z" p-id="6051"></path></svg>